<mxfile host="app.diagrams.net" modified="2023-10-05T16:40:41.927Z" agent="Mozilla/5.0 (Windows NT 10.0; Win64; x64) AppleWebKit/537.36 (KHTML, like Gecko) Chrome/116.0.0.0 Safari/537.36 OPR/102.0.0.0" etag="M9KYMo5guXcObuwX2Egj" version="22.0.2" type="device">
  <diagram name="Página-1" id="p9BTzM1KqiWuPX5fq8RN">
    <mxGraphModel dx="2638" dy="1016" grid="1" gridSize="10" guides="1" tooltips="1" connect="1" arrows="1" fold="1" page="1" pageScale="1" pageWidth="827" pageHeight="1169" math="0" shadow="0">
      <root>
        <mxCell id="0" />
        <mxCell id="1" parent="0" />
        <mxCell id="e58q9ZZFFlB2kmBPX49l-1" value="Aeropuerto" style="swimlane;fontStyle=2;align=center;verticalAlign=top;childLayout=stackLayout;horizontal=1;startSize=26;horizontalStack=0;resizeParent=1;resizeLast=0;collapsible=1;marginBottom=0;rounded=0;shadow=0;strokeWidth=1;" vertex="1" parent="1">
          <mxGeometry x="-180" y="416" width="160" height="138" as="geometry">
            <mxRectangle x="230" y="140" width="160" height="26" as="alternateBounds" />
          </mxGeometry>
        </mxCell>
        <mxCell id="e58q9ZZFFlB2kmBPX49l-2" value="Name" style="text;align=left;verticalAlign=top;spacingLeft=4;spacingRight=4;overflow=hidden;rotatable=0;points=[[0,0.5],[1,0.5]];portConstraint=eastwest;" vertex="1" parent="e58q9ZZFFlB2kmBPX49l-1">
          <mxGeometry y="26" width="160" height="26" as="geometry" />
        </mxCell>
        <mxCell id="e58q9ZZFFlB2kmBPX49l-3" value="Phone Number" style="text;align=left;verticalAlign=top;spacingLeft=4;spacingRight=4;overflow=hidden;rotatable=0;points=[[0,0.5],[1,0.5]];portConstraint=eastwest;rounded=0;shadow=0;html=0;" vertex="1" parent="e58q9ZZFFlB2kmBPX49l-1">
          <mxGeometry y="52" width="160" height="26" as="geometry" />
        </mxCell>
        <mxCell id="e58q9ZZFFlB2kmBPX49l-4" value="Email Address" style="text;align=left;verticalAlign=top;spacingLeft=4;spacingRight=4;overflow=hidden;rotatable=0;points=[[0,0.5],[1,0.5]];portConstraint=eastwest;rounded=0;shadow=0;html=0;" vertex="1" parent="e58q9ZZFFlB2kmBPX49l-1">
          <mxGeometry y="78" width="160" height="26" as="geometry" />
        </mxCell>
        <mxCell id="e58q9ZZFFlB2kmBPX49l-5" value="" style="line;html=1;strokeWidth=1;align=left;verticalAlign=middle;spacingTop=-1;spacingLeft=3;spacingRight=3;rotatable=0;labelPosition=right;points=[];portConstraint=eastwest;" vertex="1" parent="e58q9ZZFFlB2kmBPX49l-1">
          <mxGeometry y="104" width="160" height="8" as="geometry" />
        </mxCell>
        <mxCell id="e58q9ZZFFlB2kmBPX49l-6" value="Purchase Parking Pass" style="text;align=left;verticalAlign=top;spacingLeft=4;spacingRight=4;overflow=hidden;rotatable=0;points=[[0,0.5],[1,0.5]];portConstraint=eastwest;" vertex="1" parent="e58q9ZZFFlB2kmBPX49l-1">
          <mxGeometry y="112" width="160" height="26" as="geometry" />
        </mxCell>
        <mxCell id="e58q9ZZFFlB2kmBPX49l-7" value="Aeronave" style="swimlane;fontStyle=0;align=center;verticalAlign=top;childLayout=stackLayout;horizontal=1;startSize=26;horizontalStack=0;resizeParent=1;resizeLast=0;collapsible=1;marginBottom=0;rounded=0;shadow=0;strokeWidth=1;" vertex="1" parent="1">
          <mxGeometry x="-270" y="606" width="160" height="190" as="geometry">
            <mxRectangle x="130" y="380" width="160" height="26" as="alternateBounds" />
          </mxGeometry>
        </mxCell>
        <mxCell id="e58q9ZZFFlB2kmBPX49l-8" value="marca&#xa;modelo&#xa;capacidad&#xa;velocidadMax&#xa;autonomía&#xa;Año fab.&#xa;Estado" style="text;align=left;verticalAlign=top;spacingLeft=4;spacingRight=4;overflow=hidden;rotatable=0;points=[[0,0.5],[1,0.5]];portConstraint=eastwest;" vertex="1" parent="e58q9ZZFFlB2kmBPX49l-7">
          <mxGeometry y="26" width="160" height="114" as="geometry" />
        </mxCell>
        <mxCell id="e58q9ZZFFlB2kmBPX49l-9" value="" style="line;html=1;strokeWidth=1;align=left;verticalAlign=middle;spacingTop=-1;spacingLeft=3;spacingRight=3;rotatable=0;labelPosition=right;points=[];portConstraint=eastwest;" vertex="1" parent="e58q9ZZFFlB2kmBPX49l-7">
          <mxGeometry y="140" width="160" height="8" as="geometry" />
        </mxCell>
        <mxCell id="e58q9ZZFFlB2kmBPX49l-10" value="Is Eligible To Enroll" style="text;align=left;verticalAlign=top;spacingLeft=4;spacingRight=4;overflow=hidden;rotatable=0;points=[[0,0.5],[1,0.5]];portConstraint=eastwest;fontStyle=4" vertex="1" parent="e58q9ZZFFlB2kmBPX49l-7">
          <mxGeometry y="148" width="160" height="26" as="geometry" />
        </mxCell>
        <mxCell id="e58q9ZZFFlB2kmBPX49l-11" value="" style="endArrow=diamondThin;endFill=0;endSize=24;html=1;rounded=0;" edge="1" parent="1" target="e58q9ZZFFlB2kmBPX49l-6">
          <mxGeometry width="160" relative="1" as="geometry">
            <mxPoint x="-210" y="606" as="sourcePoint" />
            <mxPoint x="-100" y="556" as="targetPoint" />
            <Array as="points">
              <mxPoint x="-210" y="594" />
              <mxPoint x="-99.5" y="594" />
            </Array>
          </mxGeometry>
        </mxCell>
        <mxCell id="e58q9ZZFFlB2kmBPX49l-12" value="Avión" style="swimlane;fontStyle=0;align=center;verticalAlign=top;childLayout=stackLayout;horizontal=1;startSize=26;horizontalStack=0;resizeParent=1;resizeLast=0;collapsible=1;marginBottom=0;rounded=0;shadow=0;strokeWidth=1;" vertex="1" parent="1">
          <mxGeometry x="-490" y="866" width="160" height="138" as="geometry">
            <mxRectangle x="130" y="380" width="160" height="26" as="alternateBounds" />
          </mxGeometry>
        </mxCell>
        <mxCell id="e58q9ZZFFlB2kmBPX49l-13" value="Student Number" style="text;align=left;verticalAlign=top;spacingLeft=4;spacingRight=4;overflow=hidden;rotatable=0;points=[[0,0.5],[1,0.5]];portConstraint=eastwest;" vertex="1" parent="e58q9ZZFFlB2kmBPX49l-12">
          <mxGeometry y="26" width="160" height="26" as="geometry" />
        </mxCell>
        <mxCell id="e58q9ZZFFlB2kmBPX49l-14" value="Average Mark" style="text;align=left;verticalAlign=top;spacingLeft=4;spacingRight=4;overflow=hidden;rotatable=0;points=[[0,0.5],[1,0.5]];portConstraint=eastwest;rounded=0;shadow=0;html=0;" vertex="1" parent="e58q9ZZFFlB2kmBPX49l-12">
          <mxGeometry y="52" width="160" height="26" as="geometry" />
        </mxCell>
        <mxCell id="e58q9ZZFFlB2kmBPX49l-15" value="" style="line;html=1;strokeWidth=1;align=left;verticalAlign=middle;spacingTop=-1;spacingLeft=3;spacingRight=3;rotatable=0;labelPosition=right;points=[];portConstraint=eastwest;" vertex="1" parent="e58q9ZZFFlB2kmBPX49l-12">
          <mxGeometry y="78" width="160" height="8" as="geometry" />
        </mxCell>
        <mxCell id="e58q9ZZFFlB2kmBPX49l-16" value="Is Eligible To Enroll" style="text;align=left;verticalAlign=top;spacingLeft=4;spacingRight=4;overflow=hidden;rotatable=0;points=[[0,0.5],[1,0.5]];portConstraint=eastwest;fontStyle=4" vertex="1" parent="e58q9ZZFFlB2kmBPX49l-12">
          <mxGeometry y="86" width="160" height="26" as="geometry" />
        </mxCell>
        <mxCell id="e58q9ZZFFlB2kmBPX49l-17" value="Get Seminars Taken" style="text;align=left;verticalAlign=top;spacingLeft=4;spacingRight=4;overflow=hidden;rotatable=0;points=[[0,0.5],[1,0.5]];portConstraint=eastwest;" vertex="1" parent="e58q9ZZFFlB2kmBPX49l-12">
          <mxGeometry y="112" width="160" height="26" as="geometry" />
        </mxCell>
        <mxCell id="e58q9ZZFFlB2kmBPX49l-18" value="Helicóptero" style="swimlane;fontStyle=0;align=center;verticalAlign=top;childLayout=stackLayout;horizontal=1;startSize=26;horizontalStack=0;resizeParent=1;resizeLast=0;collapsible=1;marginBottom=0;rounded=0;shadow=0;strokeWidth=1;" vertex="1" parent="1">
          <mxGeometry x="-280" y="866" width="160" height="138" as="geometry">
            <mxRectangle x="130" y="380" width="160" height="26" as="alternateBounds" />
          </mxGeometry>
        </mxCell>
        <mxCell id="e58q9ZZFFlB2kmBPX49l-19" value="Student Number" style="text;align=left;verticalAlign=top;spacingLeft=4;spacingRight=4;overflow=hidden;rotatable=0;points=[[0,0.5],[1,0.5]];portConstraint=eastwest;" vertex="1" parent="e58q9ZZFFlB2kmBPX49l-18">
          <mxGeometry y="26" width="160" height="26" as="geometry" />
        </mxCell>
        <mxCell id="e58q9ZZFFlB2kmBPX49l-20" value="Average Mark" style="text;align=left;verticalAlign=top;spacingLeft=4;spacingRight=4;overflow=hidden;rotatable=0;points=[[0,0.5],[1,0.5]];portConstraint=eastwest;rounded=0;shadow=0;html=0;" vertex="1" parent="e58q9ZZFFlB2kmBPX49l-18">
          <mxGeometry y="52" width="160" height="26" as="geometry" />
        </mxCell>
        <mxCell id="e58q9ZZFFlB2kmBPX49l-21" value="" style="line;html=1;strokeWidth=1;align=left;verticalAlign=middle;spacingTop=-1;spacingLeft=3;spacingRight=3;rotatable=0;labelPosition=right;points=[];portConstraint=eastwest;" vertex="1" parent="e58q9ZZFFlB2kmBPX49l-18">
          <mxGeometry y="78" width="160" height="8" as="geometry" />
        </mxCell>
        <mxCell id="e58q9ZZFFlB2kmBPX49l-22" value="Is Eligible To Enroll" style="text;align=left;verticalAlign=top;spacingLeft=4;spacingRight=4;overflow=hidden;rotatable=0;points=[[0,0.5],[1,0.5]];portConstraint=eastwest;fontStyle=4" vertex="1" parent="e58q9ZZFFlB2kmBPX49l-18">
          <mxGeometry y="86" width="160" height="26" as="geometry" />
        </mxCell>
        <mxCell id="e58q9ZZFFlB2kmBPX49l-23" value="Get Seminars Taken" style="text;align=left;verticalAlign=top;spacingLeft=4;spacingRight=4;overflow=hidden;rotatable=0;points=[[0,0.5],[1,0.5]];portConstraint=eastwest;" vertex="1" parent="e58q9ZZFFlB2kmBPX49l-18">
          <mxGeometry y="112" width="160" height="26" as="geometry" />
        </mxCell>
        <mxCell id="e58q9ZZFFlB2kmBPX49l-24" value="Jet Privado" style="swimlane;fontStyle=0;align=center;verticalAlign=top;childLayout=stackLayout;horizontal=1;startSize=26;horizontalStack=0;resizeParent=1;resizeLast=0;collapsible=1;marginBottom=0;rounded=0;shadow=0;strokeWidth=1;" vertex="1" parent="1">
          <mxGeometry x="-66" y="866" width="160" height="138" as="geometry">
            <mxRectangle x="130" y="380" width="160" height="26" as="alternateBounds" />
          </mxGeometry>
        </mxCell>
        <mxCell id="e58q9ZZFFlB2kmBPX49l-25" value="Student Number" style="text;align=left;verticalAlign=top;spacingLeft=4;spacingRight=4;overflow=hidden;rotatable=0;points=[[0,0.5],[1,0.5]];portConstraint=eastwest;" vertex="1" parent="e58q9ZZFFlB2kmBPX49l-24">
          <mxGeometry y="26" width="160" height="26" as="geometry" />
        </mxCell>
        <mxCell id="e58q9ZZFFlB2kmBPX49l-26" value="Average Mark" style="text;align=left;verticalAlign=top;spacingLeft=4;spacingRight=4;overflow=hidden;rotatable=0;points=[[0,0.5],[1,0.5]];portConstraint=eastwest;rounded=0;shadow=0;html=0;" vertex="1" parent="e58q9ZZFFlB2kmBPX49l-24">
          <mxGeometry y="52" width="160" height="26" as="geometry" />
        </mxCell>
        <mxCell id="e58q9ZZFFlB2kmBPX49l-27" value="" style="line;html=1;strokeWidth=1;align=left;verticalAlign=middle;spacingTop=-1;spacingLeft=3;spacingRight=3;rotatable=0;labelPosition=right;points=[];portConstraint=eastwest;" vertex="1" parent="e58q9ZZFFlB2kmBPX49l-24">
          <mxGeometry y="78" width="160" height="8" as="geometry" />
        </mxCell>
        <mxCell id="e58q9ZZFFlB2kmBPX49l-28" value="Is Eligible To Enroll" style="text;align=left;verticalAlign=top;spacingLeft=4;spacingRight=4;overflow=hidden;rotatable=0;points=[[0,0.5],[1,0.5]];portConstraint=eastwest;fontStyle=4" vertex="1" parent="e58q9ZZFFlB2kmBPX49l-24">
          <mxGeometry y="86" width="160" height="26" as="geometry" />
        </mxCell>
        <mxCell id="e58q9ZZFFlB2kmBPX49l-29" value="Get Seminars Taken" style="text;align=left;verticalAlign=top;spacingLeft=4;spacingRight=4;overflow=hidden;rotatable=0;points=[[0,0.5],[1,0.5]];portConstraint=eastwest;" vertex="1" parent="e58q9ZZFFlB2kmBPX49l-24">
          <mxGeometry y="112" width="160" height="26" as="geometry" />
        </mxCell>
        <mxCell id="e58q9ZZFFlB2kmBPX49l-30" value="" style="endArrow=block;endSize=16;endFill=0;html=1;rounded=0;exitX=0.5;exitY=0;exitDx=0;exitDy=0;" edge="1" parent="1">
          <mxGeometry width="160" relative="1" as="geometry">
            <mxPoint x="-420" y="866" as="sourcePoint" />
            <mxPoint x="-200" y="796" as="targetPoint" />
            <Array as="points">
              <mxPoint x="-420" y="826" />
              <mxPoint x="-300" y="826" />
              <mxPoint x="-240" y="826" />
              <mxPoint x="-200" y="826" />
            </Array>
          </mxGeometry>
        </mxCell>
        <mxCell id="e58q9ZZFFlB2kmBPX49l-31" value="" style="endArrow=none;html=1;rounded=0;exitX=0.5;exitY=0;exitDx=0;exitDy=0;" edge="1" parent="1" source="e58q9ZZFFlB2kmBPX49l-18">
          <mxGeometry width="50" height="50" relative="1" as="geometry">
            <mxPoint x="-210.36" y="866" as="sourcePoint" />
            <mxPoint x="-200" y="826" as="targetPoint" />
            <Array as="points" />
          </mxGeometry>
        </mxCell>
        <mxCell id="e58q9ZZFFlB2kmBPX49l-32" value="" style="endArrow=none;html=1;rounded=0;entryX=0.469;entryY=-0.005;entryDx=0;entryDy=0;entryPerimeter=0;" edge="1" parent="1" target="e58q9ZZFFlB2kmBPX49l-24">
          <mxGeometry width="50" height="50" relative="1" as="geometry">
            <mxPoint x="-200" y="826" as="sourcePoint" />
            <mxPoint x="10" y="856" as="targetPoint" />
            <Array as="points">
              <mxPoint x="10" y="826" />
            </Array>
          </mxGeometry>
        </mxCell>
        <mxCell id="e58q9ZZFFlB2kmBPX49l-33" value="Torre de control" style="swimlane;fontStyle=0;align=center;verticalAlign=top;childLayout=stackLayout;horizontal=1;startSize=26;horizontalStack=0;resizeParent=1;resizeLast=0;collapsible=1;marginBottom=0;rounded=0;shadow=0;strokeWidth=1;" vertex="1" parent="1">
          <mxGeometry x="110" y="406" width="152" height="216" as="geometry">
            <mxRectangle x="550" y="140" width="160" height="26" as="alternateBounds" />
          </mxGeometry>
        </mxCell>
        <mxCell id="e58q9ZZFFlB2kmBPX49l-34" value="Street" style="text;align=left;verticalAlign=top;spacingLeft=4;spacingRight=4;overflow=hidden;rotatable=0;points=[[0,0.5],[1,0.5]];portConstraint=eastwest;" vertex="1" parent="e58q9ZZFFlB2kmBPX49l-33">
          <mxGeometry y="26" width="152" height="26" as="geometry" />
        </mxCell>
        <mxCell id="e58q9ZZFFlB2kmBPX49l-35" value="City" style="text;align=left;verticalAlign=top;spacingLeft=4;spacingRight=4;overflow=hidden;rotatable=0;points=[[0,0.5],[1,0.5]];portConstraint=eastwest;rounded=0;shadow=0;html=0;" vertex="1" parent="e58q9ZZFFlB2kmBPX49l-33">
          <mxGeometry y="52" width="152" height="26" as="geometry" />
        </mxCell>
        <mxCell id="e58q9ZZFFlB2kmBPX49l-36" value="State" style="text;align=left;verticalAlign=top;spacingLeft=4;spacingRight=4;overflow=hidden;rotatable=0;points=[[0,0.5],[1,0.5]];portConstraint=eastwest;rounded=0;shadow=0;html=0;" vertex="1" parent="e58q9ZZFFlB2kmBPX49l-33">
          <mxGeometry y="78" width="152" height="26" as="geometry" />
        </mxCell>
        <mxCell id="e58q9ZZFFlB2kmBPX49l-37" value="Postal Code" style="text;align=left;verticalAlign=top;spacingLeft=4;spacingRight=4;overflow=hidden;rotatable=0;points=[[0,0.5],[1,0.5]];portConstraint=eastwest;rounded=0;shadow=0;html=0;" vertex="1" parent="e58q9ZZFFlB2kmBPX49l-33">
          <mxGeometry y="104" width="152" height="26" as="geometry" />
        </mxCell>
        <mxCell id="e58q9ZZFFlB2kmBPX49l-38" value="Country" style="text;align=left;verticalAlign=top;spacingLeft=4;spacingRight=4;overflow=hidden;rotatable=0;points=[[0,0.5],[1,0.5]];portConstraint=eastwest;rounded=0;shadow=0;html=0;" vertex="1" parent="e58q9ZZFFlB2kmBPX49l-33">
          <mxGeometry y="130" width="152" height="26" as="geometry" />
        </mxCell>
        <mxCell id="e58q9ZZFFlB2kmBPX49l-39" value="" style="line;html=1;strokeWidth=1;align=left;verticalAlign=middle;spacingTop=-1;spacingLeft=3;spacingRight=3;rotatable=0;labelPosition=right;points=[];portConstraint=eastwest;" vertex="1" parent="e58q9ZZFFlB2kmBPX49l-33">
          <mxGeometry y="156" width="152" height="8" as="geometry" />
        </mxCell>
        <mxCell id="e58q9ZZFFlB2kmBPX49l-40" value="Validate" style="text;align=left;verticalAlign=top;spacingLeft=4;spacingRight=4;overflow=hidden;rotatable=0;points=[[0,0.5],[1,0.5]];portConstraint=eastwest;" vertex="1" parent="e58q9ZZFFlB2kmBPX49l-33">
          <mxGeometry y="164" width="152" height="26" as="geometry" />
        </mxCell>
        <mxCell id="e58q9ZZFFlB2kmBPX49l-41" value="Output As Label" style="text;align=left;verticalAlign=top;spacingLeft=4;spacingRight=4;overflow=hidden;rotatable=0;points=[[0,0.5],[1,0.5]];portConstraint=eastwest;" vertex="1" parent="e58q9ZZFFlB2kmBPX49l-33">
          <mxGeometry y="190" width="152" height="26" as="geometry" />
        </mxCell>
        <mxCell id="e58q9ZZFFlB2kmBPX49l-42" value="" style="endArrow=classic;html=1;rounded=0;exitX=1.021;exitY=1.115;exitDx=0;exitDy=0;exitPerimeter=0;entryX=0.003;entryY=0.729;entryDx=0;entryDy=0;entryPerimeter=0;" edge="1" parent="1">
          <mxGeometry width="50" height="50" relative="1" as="geometry">
            <mxPoint x="-110.0000000000001" y="665.9999999999999" as="sourcePoint" />
            <mxPoint x="110.45600000000013" y="564.954" as="targetPoint" />
            <Array as="points">
              <mxPoint x="10" y="665" />
              <mxPoint x="10" y="566" />
            </Array>
          </mxGeometry>
        </mxCell>
        <mxCell id="e58q9ZZFFlB2kmBPX49l-43" value="Vuelos" style="swimlane;fontStyle=2;align=center;verticalAlign=top;childLayout=stackLayout;horizontal=1;startSize=26;horizontalStack=0;resizeParent=1;resizeLast=0;collapsible=1;marginBottom=0;rounded=0;shadow=0;strokeWidth=1;" vertex="1" parent="1">
          <mxGeometry x="-630" y="606" width="160" height="138" as="geometry">
            <mxRectangle x="230" y="140" width="160" height="26" as="alternateBounds" />
          </mxGeometry>
        </mxCell>
        <mxCell id="e58q9ZZFFlB2kmBPX49l-44" value="Name" style="text;align=left;verticalAlign=top;spacingLeft=4;spacingRight=4;overflow=hidden;rotatable=0;points=[[0,0.5],[1,0.5]];portConstraint=eastwest;" vertex="1" parent="e58q9ZZFFlB2kmBPX49l-43">
          <mxGeometry y="26" width="160" height="26" as="geometry" />
        </mxCell>
        <mxCell id="e58q9ZZFFlB2kmBPX49l-45" value="Phone Number" style="text;align=left;verticalAlign=top;spacingLeft=4;spacingRight=4;overflow=hidden;rotatable=0;points=[[0,0.5],[1,0.5]];portConstraint=eastwest;rounded=0;shadow=0;html=0;" vertex="1" parent="e58q9ZZFFlB2kmBPX49l-43">
          <mxGeometry y="52" width="160" height="26" as="geometry" />
        </mxCell>
        <mxCell id="e58q9ZZFFlB2kmBPX49l-46" value="Email Address" style="text;align=left;verticalAlign=top;spacingLeft=4;spacingRight=4;overflow=hidden;rotatable=0;points=[[0,0.5],[1,0.5]];portConstraint=eastwest;rounded=0;shadow=0;html=0;" vertex="1" parent="e58q9ZZFFlB2kmBPX49l-43">
          <mxGeometry y="78" width="160" height="26" as="geometry" />
        </mxCell>
        <mxCell id="e58q9ZZFFlB2kmBPX49l-47" value="" style="line;html=1;strokeWidth=1;align=left;verticalAlign=middle;spacingTop=-1;spacingLeft=3;spacingRight=3;rotatable=0;labelPosition=right;points=[];portConstraint=eastwest;" vertex="1" parent="e58q9ZZFFlB2kmBPX49l-43">
          <mxGeometry y="104" width="160" height="8" as="geometry" />
        </mxCell>
        <mxCell id="e58q9ZZFFlB2kmBPX49l-48" value="Purchase Parking Pass" style="text;align=left;verticalAlign=top;spacingLeft=4;spacingRight=4;overflow=hidden;rotatable=0;points=[[0,0.5],[1,0.5]];portConstraint=eastwest;" vertex="1" parent="e58q9ZZFFlB2kmBPX49l-43">
          <mxGeometry y="112" width="160" height="26" as="geometry" />
        </mxCell>
        <mxCell id="e58q9ZZFFlB2kmBPX49l-49" style="edgeStyle=orthogonalEdgeStyle;rounded=0;orthogonalLoop=1;jettySize=auto;html=1;exitX=1;exitY=0.5;exitDx=0;exitDy=0;entryX=0.004;entryY=0.222;entryDx=0;entryDy=0;entryPerimeter=0;" edge="1" parent="1" source="e58q9ZZFFlB2kmBPX49l-46" target="e58q9ZZFFlB2kmBPX49l-10">
          <mxGeometry relative="1" as="geometry" />
        </mxCell>
        <mxCell id="e58q9ZZFFlB2kmBPX49l-50" value="Tripulación" style="swimlane;fontStyle=0;align=center;verticalAlign=top;childLayout=stackLayout;horizontal=1;startSize=26;horizontalStack=0;resizeParent=1;resizeLast=0;collapsible=1;marginBottom=0;rounded=0;shadow=0;strokeWidth=1;" vertex="1" parent="1">
          <mxGeometry x="-790" y="356" width="152" height="184" as="geometry">
            <mxRectangle x="550" y="140" width="160" height="26" as="alternateBounds" />
          </mxGeometry>
        </mxCell>
        <mxCell id="e58q9ZZFFlB2kmBPX49l-51" value="Name" style="text;align=left;verticalAlign=top;spacingLeft=4;spacingRight=4;overflow=hidden;rotatable=0;points=[[0,0.5],[1,0.5]];portConstraint=eastwest;rounded=0;shadow=0;html=0;" vertex="1" parent="e58q9ZZFFlB2kmBPX49l-50">
          <mxGeometry y="26" width="152" height="74" as="geometry" />
        </mxCell>
        <mxCell id="e58q9ZZFFlB2kmBPX49l-52" value="" style="line;html=1;strokeWidth=1;align=left;verticalAlign=middle;spacingTop=-1;spacingLeft=3;spacingRight=3;rotatable=0;labelPosition=right;points=[];portConstraint=eastwest;" vertex="1" parent="e58q9ZZFFlB2kmBPX49l-50">
          <mxGeometry y="100" width="152" height="8" as="geometry" />
        </mxCell>
        <mxCell id="e58q9ZZFFlB2kmBPX49l-53" value="Validate" style="text;align=left;verticalAlign=top;spacingLeft=4;spacingRight=4;overflow=hidden;rotatable=0;points=[[0,0.5],[1,0.5]];portConstraint=eastwest;" vertex="1" parent="e58q9ZZFFlB2kmBPX49l-50">
          <mxGeometry y="108" width="152" height="26" as="geometry" />
        </mxCell>
        <mxCell id="e58q9ZZFFlB2kmBPX49l-54" value="Pasajero" style="swimlane;fontStyle=0;align=center;verticalAlign=top;childLayout=stackLayout;horizontal=1;startSize=26;horizontalStack=0;resizeParent=1;resizeLast=0;collapsible=1;marginBottom=0;rounded=0;shadow=0;strokeWidth=1;" vertex="1" parent="1">
          <mxGeometry x="-550" y="356" width="152" height="184" as="geometry">
            <mxRectangle x="550" y="140" width="160" height="26" as="alternateBounds" />
          </mxGeometry>
        </mxCell>
        <mxCell id="e58q9ZZFFlB2kmBPX49l-55" value="Name" style="text;align=left;verticalAlign=top;spacingLeft=4;spacingRight=4;overflow=hidden;rotatable=0;points=[[0,0.5],[1,0.5]];portConstraint=eastwest;" vertex="1" parent="e58q9ZZFFlB2kmBPX49l-54">
          <mxGeometry y="26" width="152" height="74" as="geometry" />
        </mxCell>
        <mxCell id="e58q9ZZFFlB2kmBPX49l-56" value="" style="line;html=1;strokeWidth=1;align=left;verticalAlign=middle;spacingTop=-1;spacingLeft=3;spacingRight=3;rotatable=0;labelPosition=right;points=[];portConstraint=eastwest;" vertex="1" parent="e58q9ZZFFlB2kmBPX49l-54">
          <mxGeometry y="100" width="152" height="8" as="geometry" />
        </mxCell>
        <mxCell id="e58q9ZZFFlB2kmBPX49l-57" value="Validate" style="text;align=left;verticalAlign=top;spacingLeft=4;spacingRight=4;overflow=hidden;rotatable=0;points=[[0,0.5],[1,0.5]];portConstraint=eastwest;" vertex="1" parent="e58q9ZZFFlB2kmBPX49l-54">
          <mxGeometry y="108" width="152" height="26" as="geometry" />
        </mxCell>
        <mxCell id="e58q9ZZFFlB2kmBPX49l-58" style="edgeStyle=orthogonalEdgeStyle;rounded=0;orthogonalLoop=1;jettySize=auto;html=1;entryX=0.217;entryY=-0.01;entryDx=0;entryDy=0;entryPerimeter=0;exitX=0.5;exitY=1;exitDx=0;exitDy=0;" edge="1" parent="1" source="e58q9ZZFFlB2kmBPX49l-50" target="e58q9ZZFFlB2kmBPX49l-43">
          <mxGeometry relative="1" as="geometry">
            <mxPoint x="-710" y="560" as="sourcePoint" />
          </mxGeometry>
        </mxCell>
        <mxCell id="e58q9ZZFFlB2kmBPX49l-59" style="edgeStyle=orthogonalEdgeStyle;rounded=0;orthogonalLoop=1;jettySize=auto;html=1;exitX=0.5;exitY=1;exitDx=0;exitDy=0;entryX=0.359;entryY=0.01;entryDx=0;entryDy=0;entryPerimeter=0;" edge="1" parent="1" source="e58q9ZZFFlB2kmBPX49l-54" target="e58q9ZZFFlB2kmBPX49l-43">
          <mxGeometry relative="1" as="geometry" />
        </mxCell>
        <mxCell id="e58q9ZZFFlB2kmBPX49l-60" value="Puerta de Embarque" style="swimlane;fontStyle=0;align=center;verticalAlign=top;childLayout=stackLayout;horizontal=1;startSize=26;horizontalStack=0;resizeParent=1;resizeLast=0;collapsible=1;marginBottom=0;rounded=0;shadow=0;strokeWidth=1;" vertex="1" parent="1">
          <mxGeometry x="410" y="406" width="152" height="216" as="geometry">
            <mxRectangle x="550" y="140" width="160" height="26" as="alternateBounds" />
          </mxGeometry>
        </mxCell>
        <mxCell id="e58q9ZZFFlB2kmBPX49l-61" value="Street" style="text;align=left;verticalAlign=top;spacingLeft=4;spacingRight=4;overflow=hidden;rotatable=0;points=[[0,0.5],[1,0.5]];portConstraint=eastwest;" vertex="1" parent="e58q9ZZFFlB2kmBPX49l-60">
          <mxGeometry y="26" width="152" height="26" as="geometry" />
        </mxCell>
        <mxCell id="e58q9ZZFFlB2kmBPX49l-62" value="City" style="text;align=left;verticalAlign=top;spacingLeft=4;spacingRight=4;overflow=hidden;rotatable=0;points=[[0,0.5],[1,0.5]];portConstraint=eastwest;rounded=0;shadow=0;html=0;" vertex="1" parent="e58q9ZZFFlB2kmBPX49l-60">
          <mxGeometry y="52" width="152" height="26" as="geometry" />
        </mxCell>
        <mxCell id="e58q9ZZFFlB2kmBPX49l-63" value="State" style="text;align=left;verticalAlign=top;spacingLeft=4;spacingRight=4;overflow=hidden;rotatable=0;points=[[0,0.5],[1,0.5]];portConstraint=eastwest;rounded=0;shadow=0;html=0;" vertex="1" parent="e58q9ZZFFlB2kmBPX49l-60">
          <mxGeometry y="78" width="152" height="26" as="geometry" />
        </mxCell>
        <mxCell id="e58q9ZZFFlB2kmBPX49l-64" value="Postal Code" style="text;align=left;verticalAlign=top;spacingLeft=4;spacingRight=4;overflow=hidden;rotatable=0;points=[[0,0.5],[1,0.5]];portConstraint=eastwest;rounded=0;shadow=0;html=0;" vertex="1" parent="e58q9ZZFFlB2kmBPX49l-60">
          <mxGeometry y="104" width="152" height="26" as="geometry" />
        </mxCell>
        <mxCell id="e58q9ZZFFlB2kmBPX49l-65" value="Country" style="text;align=left;verticalAlign=top;spacingLeft=4;spacingRight=4;overflow=hidden;rotatable=0;points=[[0,0.5],[1,0.5]];portConstraint=eastwest;rounded=0;shadow=0;html=0;" vertex="1" parent="e58q9ZZFFlB2kmBPX49l-60">
          <mxGeometry y="130" width="152" height="26" as="geometry" />
        </mxCell>
        <mxCell id="e58q9ZZFFlB2kmBPX49l-66" value="" style="line;html=1;strokeWidth=1;align=left;verticalAlign=middle;spacingTop=-1;spacingLeft=3;spacingRight=3;rotatable=0;labelPosition=right;points=[];portConstraint=eastwest;" vertex="1" parent="e58q9ZZFFlB2kmBPX49l-60">
          <mxGeometry y="156" width="152" height="8" as="geometry" />
        </mxCell>
        <mxCell id="e58q9ZZFFlB2kmBPX49l-67" value="Validate" style="text;align=left;verticalAlign=top;spacingLeft=4;spacingRight=4;overflow=hidden;rotatable=0;points=[[0,0.5],[1,0.5]];portConstraint=eastwest;" vertex="1" parent="e58q9ZZFFlB2kmBPX49l-60">
          <mxGeometry y="164" width="152" height="26" as="geometry" />
        </mxCell>
        <mxCell id="e58q9ZZFFlB2kmBPX49l-68" value="Output As Label" style="text;align=left;verticalAlign=top;spacingLeft=4;spacingRight=4;overflow=hidden;rotatable=0;points=[[0,0.5],[1,0.5]];portConstraint=eastwest;" vertex="1" parent="e58q9ZZFFlB2kmBPX49l-60">
          <mxGeometry y="190" width="152" height="26" as="geometry" />
        </mxCell>
        <mxCell id="e58q9ZZFFlB2kmBPX49l-69" style="edgeStyle=orthogonalEdgeStyle;rounded=0;orthogonalLoop=1;jettySize=auto;html=1;exitX=0;exitY=0.5;exitDx=0;exitDy=0;entryX=1;entryY=0.5;entryDx=0;entryDy=0;" edge="1" parent="1" source="e58q9ZZFFlB2kmBPX49l-64" target="e58q9ZZFFlB2kmBPX49l-37">
          <mxGeometry relative="1" as="geometry" />
        </mxCell>
      </root>
    </mxGraphModel>
  </diagram>
</mxfile>
